<?xml version="1.0" encoding="UTF-8"?>
<svg version="1.1" xmlns="http://www.w3.org/2000/svg" width="116" height="118">
<path d="M0 0 C38.28 0 76.56 0 116 0 C116 38.94 116 77.88 116 118 C77.72 118 39.44 118 0 118 C0 79.06 0 40.12 0 0 Z " fill="#F1E9FD" transform="translate(0,0)"/>
<path d="M0 0 C0 0.66 0 1.32 0 2 C1.32 1.34 2.64 0.68 4 0 C6.26862395 1.60694196 8.15983077 2.95655626 10 5 C10.7016394 9.20983641 9.79701721 12.18133843 8 16 C7.34 16 6.68 16 6 16 C6.309375 16.969375 6.61875 17.93875 6.9375 18.9375 C8.17967097 23.23664491 8.61684853 27.55342634 9 32 C7.68 32 6.36 32 5 32 C3.2012856 35.82226811 2.5508564 38.77805018 3 43 C4.93162483 46.65992073 7.12812449 47.74425659 11 49 C10.34 51.97 9.68 54.94 9 58 C1.31870302 58.67422042 -6.28817785 59.24838691 -14 59 C-15.02609375 58.98324219 -16.0521875 58.96648437 -17.109375 58.94921875 C-26.13296571 58.56406549 -26.13296571 58.56406549 -29.1875 55.5625 C-32.09275884 51.45506508 -32.2662171 49.05812488 -32 44 C-31.34 43.01 -30.68 42.02 -30 41 C-29.34 41 -28.68 41 -28 41 C-27.80664062 41.56589844 -27.61328125 42.13179687 -27.4140625 42.71484375 C-27.02347656 43.81505859 -27.02347656 43.81505859 -26.625 44.9375 C-26.36976562 45.66839844 -26.11453125 46.39929688 -25.8515625 47.15234375 C-25.14728587 49.18682116 -25.14728587 49.18682116 -23 50 C-22.95875 49.071875 -22.9175 48.14375 -22.875 47.1875 C-22.38170838 43.4803387 -20.89889463 40.88563833 -19 37.6875 C-16.12785819 32.6316959 -14.10366032 27.90720246 -15 22 C-16.6459651 20.31288577 -18.31237149 18.6454378 -20 17 C-20.43743227 13.79019293 -20.01907621 11.06279734 -19 8 C-16.6875 5.125 -16.6875 5.125 -14 3 C-13.319375 2.4225 -12.63875 1.845 -11.9375 1.25 C-7.78044507 -1.43197093 -4.77063178 -0.97581105 0 0 Z " fill="#F9A005" transform="translate(48,18)"/>
<path d="M0 0 C2.375 -0.125 2.375 -0.125 5 0 C5.66 0.66 6.32 1.32 7 2 C8.4540625 1.7525 8.4540625 1.7525 9.9375 1.5 C13 1 13 1 16 3 C15.67 4.32 15.34 5.64 15 7 C15.66 7 16.32 7 17 7 C18.4375 9.01171875 18.4375 9.01171875 20 11.6875 C20.515625 12.55761719 21.03125 13.42773438 21.5625 14.32421875 C22.91184989 16.83591623 23.96026018 19.3495918 25 22 C25.33 22.33 25.66 22.66 26 23 C26.07179964 24.51928038 26.08392007 26.04167482 26.0625 27.5625 C26.05347656 28.38878906 26.04445312 29.21507813 26.03515625 30.06640625 C26.02355469 30.70449219 26.01195312 31.34257813 26 32 C26.495 31.505 26.495 31.505 27 31 C26.73455437 27.46225055 26.34828926 23.9443315 25.9609375 20.41796875 C26 17 26 17 27.2265625 14.55078125 C29 13 29 13 33 13 C32.83371094 13.5053125 32.66742188 14.010625 32.49609375 14.53125 C31.5757607 19.1111751 32.04571177 23.81772639 32.16015625 28.46875 C31.93524532 33.42776171 31.93524532 33.42776171 30 36 C26.62934178 38.16633246 23.87691973 38.23408745 19.921875 38.1953125 C18.18164062 38.18564453 18.18164062 38.18564453 16.40625 38.17578125 C15.1996875 38.15902344 13.993125 38.14226562 12.75 38.125 C10.91695312 38.11146484 10.91695312 38.11146484 9.046875 38.09765625 C6.03105218 38.07409513 3.01562508 38.04119706 0 38 C-0.66 34.7 -1.32 31.4 -2 28 C-3.216875 28.20625 -4.43375 28.4125 -5.6875 28.625 C-9.37194351 29.07416361 -11.72999148 28.96200511 -15 27 C-17.40764597 24.6753763 -17.94882102 23.40090198 -18.375 20.0625 C-17.92180395 16.36139891 -17.62389588 14.70106929 -15 12 C-11.6499002 11.06655339 -8.46407122 10.64976215 -5 11 C-2.68359375 12.5 -2.68359375 12.5 -1 14 C-0.63794536 12.04310963 -0.28558579 10.08442332 0.0625 8.125 C0.25972656 7.03445312 0.45695312 5.94390625 0.66015625 4.8203125 C1.25631899 2.05346717 1.25631899 2.05346717 0 0 Z " fill="#F6D1F4" transform="translate(68,38)"/>
<path d="M0 0 C-0.16628906 0.5053125 -0.33257812 1.010625 -0.50390625 1.53125 C-1.4242393 6.1111751 -0.95428823 10.81772639 -0.83984375 15.46875 C-1.06475468 20.42776171 -1.06475468 20.42776171 -3 23 C-6.37065822 25.16633246 -9.12308027 25.23408745 -13.078125 25.1953125 C-14.81835938 25.18564453 -14.81835938 25.18564453 -16.59375 25.17578125 C-17.8003125 25.15902344 -19.006875 25.14226562 -20.25 25.125 C-22.08304688 25.11146484 -22.08304688 25.11146484 -23.953125 25.09765625 C-26.96894782 25.07409513 -29.98437492 25.04119706 -33 25 C-33.34778397 23.4102919 -33.68734343 21.81878306 -34.0234375 20.2265625 C-34.21341309 19.34049316 -34.40338867 18.45442383 -34.59912109 17.54150391 C-35.08028008 14.49103798 -34.78357971 11.97760291 -34 9 C-33.34 9 -32.68 9 -32 9 C-32 6.36 -32 3.72 -32 1 C-29.02422056 2.02613084 -28.02245939 2.96631091 -26.25 5.625 C-24.72271105 9.74868017 -24.77413285 12.63323514 -25 17 C-24.34 17 -23.68 17 -23 17 C-23.061875 15.824375 -23.12375 14.64875 -23.1875 13.4375 C-23.17943074 8.90257786 -22.25299149 5.9427351 -20 2 C-17.8125 1.0625 -17.8125 1.0625 -16 1 C-14.40168495 4.19663009 -14.62330903 7.52188668 -15 11 C-15.82997982 13.44168483 -16.89843735 15.65917937 -18 18 C-18 18.99 -18 19.98 -18 21 C-14.52852158 21.74957157 -14.52852158 21.74957157 -11 22 C-9.21590198 18.93753253 -8.77119979 16.77920727 -8.875 13.25 C-8.90207031 12.05117188 -8.90207031 12.05117188 -8.9296875 10.828125 C-8.95289062 10.22484375 -8.97609375 9.6215625 -9 9 C-8.34 9.33 -7.68 9.66 -7 10 C-7 12.97 -7 15.94 -7 19 C-6.67 18.67 -6.34 18.34 -6 18 C-6.26544563 14.46225055 -6.65171074 10.9443315 -7.0390625 7.41796875 C-7 4 -7 4 -5.7734375 1.55078125 C-4 0 -4 0 0 0 Z " fill="#97534B" transform="translate(101,51)"/>
<path d="M0 0 C-0.33 1.65 -0.66 3.3 -1 5 C-0.34 5 0.32 5 1 5 C1.33 4.01 1.66 3.02 2 2 C2.99 2.33 3.98 2.66 5 3 C5 3.99 5 4.98 5 6 C5.66 6 6.32 6 7 6 C7 6.66 7 7.32 7 8 C6.34 8 5.68 8 5 8 C5 9.32 5 10.64 5 12 C5.66 12 6.32 12 7 12 C7 12.99 7 13.98 7 15 C5.33388095 15.042721 3.66617115 15.04063832 2 15 C1 14 1 14 0.9375 10.9375 C0.958125 9.968125 0.97875 8.99875 1 8 C0.34 8 -0.32 8 -1 8 C-1.33 8.99 -1.66 9.98 -2 11 C-3.32 11 -4.64 11 -6 11 C-6 11.66 -6 12.32 -6 13 C-4.35 12.67 -2.7 12.34 -1 12 C-1.33 12.99 -1.66 13.98 -2 15 C-4.8125 15.3125 -4.8125 15.3125 -8 15 C-9.875 12.5 -9.875 12.5 -11 10 C-12.65 10.33 -14.3 10.66 -16 11 C-16 12.32 -16 13.64 -16 15 C-17.32 14.67 -18.64 14.34 -20 14 C-20.02686553 12.02090602 -20.04633375 10.04171029 -20.0625 8.0625 C-20.07410156 6.96035156 -20.08570312 5.85820313 -20.09765625 4.72265625 C-20 2 -20 2 -19 1 C-13.47058824 0.76470588 -13.47058824 0.76470588 -11 2 C-10.34 1.34 -9.68 0.68 -9 0 C-8.34 0.33 -7.68 0.66 -7 1 C-6.360625 0.67 -5.72125 0.34 -5.0625 0 C-3 -1 -3 -1 0 0 Z " fill="#C3D5FB" transform="translate(38,80)"/>
<path d="M0 0 C3.0625 0.375 3.0625 0.375 6 2.125 C9.16391733 7.11056671 7.97258878 11.72524096 7.0625 17.375 C-2.75568182 18.9578877 -2.75568182 18.9578877 -6.9375 16.375 C-9.34514597 14.0503763 -9.88632102 12.77590198 -10.3125 9.4375 C-9.88614606 5.9556095 -9.12418973 4.10836216 -6.9375 1.375 C-4.63516676 0.34291958 -2.51409506 0.32094831 0 0 Z " fill="#EDE1FE" transform="translate(59.9375,48.625)"/>
<path d="M0 0 C3.96 1.98 3.96 1.98 8 4 C8 4.99 8 5.98 8 7 C7.01 7 6.02 7 5 7 C5.79117904 8.99983534 5.79117904 8.99983534 7 11 C7.99 11.33 8.98 11.66 10 12 C10.6875 14.0625 10.6875 14.0625 11 16 C9.68 16 8.36 16 7 16 C7.18828772 18.44480079 7.18828772 18.44480079 8 21 C9.96672915 22.1500831 9.96672915 22.1500831 12 23 C12.33 23.99 12.66 24.98 13 26 C11.35 25.67 9.7 25.34 8 25 C9.07401108 27.91517292 9.77810176 29.77810176 12 32 C12 33.32 12 34.64 12 36 C10.68 36 9.36 36 8 36 C8.144375 36.53625 8.28875 37.0725 8.4375 37.625 C9.09453748 40.39915827 9.55219948 43.18525388 10 46 C8.906875 45.67 7.81375 45.34 6.6875 45 C3.15421116 43.86913351 3.15421116 43.86913351 0 44 C1.36983503 40.83884224 1.9890638 40.0072908 5 38 C5.33 37.01 5.66 36.02 6 35 C4.515 35.495 4.515 35.495 3 36 C3.33 34.35 3.66 32.7 4 31 C4.99 30.67 5.98 30.34 7 30 C6.67 28.68 6.34 27.36 6 26 C5.01 26.33 4.02 26.66 3 27 C3.165 26.236875 3.33 25.47375 3.5 24.6875 C4.09145396 21.96403764 4.09145396 21.96403764 4 19 C3.34 18.67 2.68 18.34 2 18 C2.33 15.03 2.66 12.06 3 9 C1.68 9 0.36 9 -1 9 C-0.67 6.03 -0.34 3.06 0 0 Z " fill="#8DA923" transform="translate(102,29)"/>
<path d="M0 0 C1.32 0 2.64 0 4 0 C3.67 1.32 3.34 2.64 3 4 C4.0725 3.505 5.145 3.01 6.25 2.5 C9.25416808 1.11346089 10.45934895 1 14 1 C13.67 2.32 13.34 3.64 13 5 C16.3 4.67 19.6 4.34 23 4 C22.34 5.65 21.68 7.3 21 9 C24.3 9 27.6 9 31 9 C30.67 10.32 30.34 11.64 30 13 C30.495 13.99 30.495 13.99 31 15 C30.34 15 29.68 15 29 15 C28.67 15.66 28.34 16.32 28 17 C26.0625 16.25 26.0625 16.25 24 15 C23.375 12.9375 23.375 12.9375 23 11 C22.34 10.67 21.68 10.34 21 10 C21 10.99 21 11.98 21 13 C19.125 12.75 19.125 12.75 17 12 C15.75 9.9375 15.75 9.9375 15 8 C14.34 8 13.68 8 13 8 C13 8.66 13 9.32 13 10 C11.35 9.67 9.7 9.34 8 9 C7.67 7.68 7.34 6.36 7 5 C6.01 5.33 5.02 5.66 4 6 C4 6.99 4 7.98 4 9 C1.11424181 8.60196439 0.17810487 8.20990931 -1.75 5.9375 C-2.1625 5.298125 -2.575 4.65875 -3 4 C-1.75 2 -1.75 2 0 0 Z " fill="#88A80D" transform="translate(60,2)"/>
<path d="M0 0 C2.86724686 0.57344937 3.8614515 0.8614515 6 3 C10.92494167 3.46447597 10.92494167 3.46447597 15.3125 1.5 C15.869375 1.005 16.42625 0.51 17 0 C17.66 0 18.32 0 19 0 C19 0.66 19 1.32 19 2 C18.01 2.495 18.01 2.495 17 3 C15.86649466 5.01669827 15.86649466 5.01669827 15 7 C14.67 6.67 14.34 6.34 14 6 C9.73296158 5.58970784 7.65967285 5.55086104 4.0625 8 C3.381875 8.66 2.70125 9.32 2 10 C2.66 11.32 3.32 12.64 4 14 C5.54571278 11.68143083 6.79618552 9.49361571 8 7 C9.875 7.125 9.875 7.125 12 8 C13.25 11.0625 13.25 11.0625 14 14 C13.34 14 12.68 14 12 14 C11.67 15.65 11.34 17.3 11 19 C10.401875 18.835 9.80375 18.67 9.1875 18.5 C4.94594261 17.53050117 2.0097635 18.57430631 -2 20 C-2.33 19.01 -2.66 18.02 -3 17 C-2.70351562 16.41734375 -2.40703125 15.8346875 -2.1015625 15.234375 C-0.62142996 12.23212035 -0.57468517 9.57808609 -0.375 6.25 C-0.30023438 5.07953125 -0.22546875 3.9090625 -0.1484375 2.703125 C-0.09945312 1.81109375 -0.05046875 0.9190625 0 0 Z " fill="#9C564F" transform="translate(67,22)"/>
<path d="M0 0 C2.10850329 3.16275494 3.28830876 6.13471538 4.625 9.6875 C5.07101563 10.86699219 5.51703125 12.04648438 5.9765625 13.26171875 C6.31429687 14.16535156 6.65203125 15.06898437 7 16 C7.33 15.67 7.66 15.34 8 15 C7.90968426 12.64305046 7.75311872 10.28846418 7.5625 7.9375 C7.46066406 6.64714844 7.35882813 5.35679688 7.25390625 4.02734375 C7.17011719 3.02832031 7.08632813 2.02929688 7 1 C9.85793316 3.85793316 9.40799941 6.14665584 9.625 10.125 C9.69976562 11.40632813 9.77453125 12.68765625 9.8515625 14.0078125 C9.92503906 15.48894531 9.92503906 15.48894531 10 17 C10.66 17 11.32 17 12 17 C12 14.03 12 11.06 12 8 C12.66 7.67 13.32 7.34 14 7 C13.67 10.63 13.34 14.26 13 18 C4.76167353 20.05958162 -4.65625917 19.34617432 -13 18 C-13.99 17.34 -14.98 16.68 -16 16 C-15.67 15.34 -15.34 14.68 -15 14 C-14.4225 14.165 -13.845 14.33 -13.25 14.5 C-10.73335631 15.14462031 -10.73335631 15.14462031 -7 15 C-6.67 14.34 -6.34 13.68 -6 13 C-5.01 14.485 -5.01 14.485 -4 16 C-1.34493073 13.59384348 -0.07835303 11.82040233 0.265625 8.21875 C0.25145444 5.46966145 0.17296687 2.74344679 0 0 Z " fill="#AC5411" transform="translate(35,58)"/>
<path d="M0 0 C-0.01160156 0.81984375 -0.02320312 1.6396875 -0.03515625 2.484375 C-0.04417969 3.56203125 -0.05320312 4.6396875 -0.0625 5.75 C-0.07410156 6.81734375 -0.08570312 7.8846875 -0.09765625 8.984375 C-0.01510087 11.53368501 0.25382442 13.57933591 1 16 C0.34 16 -0.32 16 -1 16 C-1.66 17.98 -2.32 19.96 -3 22 C-3.0825 21.38125 -3.165 20.7625 -3.25 20.125 C-3.81258459 17.81562433 -3.81258459 17.81562433 -6.0625 16.75 C-6.701875 16.5025 -7.34125 16.255 -8 16 C-8 13 -8 13 -7 12 C-7.40929986 9.94603274 -7.40929986 9.94603274 -8 8 C-9.32 7.67 -10.64 7.34 -12 7 C-12.33 8.32 -12.66 9.64 -13 11 C-13.66 11 -14.32 11 -15 11 C-14.67 11.99 -14.34 12.98 -14 14 C-16.475 13.01 -16.475 13.01 -19 12 C-18.68151851 9.02750614 -17.96374181 7.96160897 -15.875 5.75 C-12.32767657 3.59075965 -10.08463295 3.60724683 -6 4 C-5.67 4.33 -5.34 4.66 -5 5 C-4.71125 4.360625 -4.4225 3.72125 -4.125 3.0625 C-3.04730781 1.08673098 -2.41677831 0 0 0 Z " fill="#BD7D97" transform="translate(87,23)"/>
<path d="M0 0 C1.051875 1.1446875 1.051875 1.1446875 2.125 2.3125 C4.96352604 4.96590478 7.46949051 6.44000743 11 8 C10.34 10.97 9.68 13.94 9 17 C6.03 17 3.06 17 0 17 C0 13.7 0 10.4 0 7 C-0.33 9.97 -0.66 12.94 -1 16 C-1.66 16 -2.32 16 -3 16 C-3.33 12.37 -3.66 8.74 -4 5 C-2.68 5 -1.36 5 0 5 C0 3.35 0 1.7 0 0 Z " fill="#F69701" transform="translate(48,59)"/>
<path d="M0 0 C3.3 0.33 6.6 0.66 10 1 C9.67 1.66 9.34 2.32 9 3 C8.34 3 7.68 3 7 3 C6.9175 3.78375 6.835 4.5675 6.75 5.375 C6 8 6 8 3.9375 9.3125 C3.298125 9.539375 2.65875 9.76625 2 10 C2 8.68 2 7.36 2 6 C-1.41124018 7.41154766 -2.8456223 9.06221223 -5 12 C-5.66 12 -6.32 12 -7 12 C-7 10.68 -7 9.36 -7 8 C-10.8307197 8.54724567 -12.36924456 10.28155271 -15 13 C-15.66 13 -16.32 13 -17 13 C-16.690625 11.824375 -16.690625 11.824375 -16.375 10.625 C-16.25125 9.75875 -16.1275 8.8925 -16 8 C-16.66 7.34 -17.32 6.68 -18 6 C-18 5.01 -18 4.02 -18 3 C-16.8553125 3.495 -16.8553125 3.495 -15.6875 4 C-13.00930865 5.17436686 -13.00930865 5.17436686 -10 5 C-10 4.34 -10 3.68 -10 3 C-7 3 -4 3 -1 3 C-0.67 2.01 -0.34 1.02 0 0 Z " fill="#90AF21" transform="translate(75,101)"/>
<path d="M0 0 C0 0.33 0 0.66 0 1 C-0.59167969 1.01417969 -1.18335937 1.02835938 -1.79296875 1.04296875 C-6.35846843 1.31853725 -8.44161431 1.53277932 -12.0625 4.5625 C-12.701875 5.366875 -13.34125 6.17125 -14 7 C-13.76023437 7.49886719 -13.52046875 7.99773438 -13.2734375 8.51171875 C-10.36151871 15.56362642 -11.09026564 21.70461266 -13 29 C-13.66 29.99 -14.32 30.98 -15 32 C-14.94199219 31.33613281 -14.88398437 30.67226563 -14.82421875 29.98828125 C-14.68421984 27.2483025 -14.63759094 24.72228202 -15 22 C-15.845625 21.154375 -16.69125 20.30875 -17.5625 19.4375 C-20 17 -20 17 -20.28515625 14.87890625 C-20.00037914 10.64892428 -19.38792241 8.48228192 -16.6875 5.125 C-15.800625 4.42375 -14.91375 3.7225 -14 3 C-13.319375 2.4225 -12.63875 1.845 -11.9375 1.25 C-7.78044507 -1.43197093 -4.77063178 -0.97581105 0 0 Z " fill="#AA5928" transform="translate(48,18)"/>
<path d="M0 0 C3.47196006 2.68287823 4.0949599 5.82289183 5 10 C5.43333421 15.02667689 5.09564332 17.95185104 2 22 C1.34 22.33 0.68 22.66 0 23 C-0.33 22.34 -0.66 21.68 -1 21 C-2.65 21 -4.3 21 -6 21 C-5.44894091 17.0507432 -4.61064629 13.65079826 -3 10 C-2.34 10 -1.68 10 -1 10 C-0.67 9.01 -0.34 8.02 0 7 C0.66 7 1.32 7 2 7 C1.34 4.69 0.68 2.38 0 0 Z " fill="#EDB8E0" transform="translate(88,52)"/>
<path d="M0 0 C3.05214967 1.01738322 3.89415545 1.80211672 5.4375 4.6875 C6.16646417 8.98028901 4.91573529 11.16852942 3 15 C2.89459074 17.21081851 2.89459074 17.21081851 4 20 C3.34 20 2.68 20 2 20 C2 20.99 2 21.98 2 23 C1.01 23.33 0.02 23.66 -1 24 C-3.48063781 13.62642369 -3.48063781 13.62642369 -2 8 C-1.34 8 -0.68 8 0 8 C0 5.36 0 2.72 0 0 Z " fill="#CA8982" transform="translate(69,52)"/>
<path d="M0 0 C0.66 0 1.32 0 2 0 C2.19335938 0.56589844 2.38671875 1.13179687 2.5859375 1.71484375 C2.84632812 2.44832031 3.10671875 3.18179688 3.375 3.9375 C3.63023438 4.66839844 3.88546875 5.39929688 4.1484375 6.15234375 C4.85271413 8.18682116 4.85271413 8.18682116 7 9 C7.33 6.69 7.66 4.38 8 2 C8.99 2 9.98 2 11 2 C10.835 2.86625 10.67 3.7325 10.5 4.625 C10.02781452 7.81225199 9.92344882 10.78485027 10 14 C6.8125 14.8125 6.8125 14.8125 3 15 C0.0625 13 0.0625 13 -2 10 C-2.53603554 5.55856266 -2.50031654 3.75047482 0 0 Z " fill="#DE8E2B" transform="translate(18,59)"/>
<path d="M0 0 C3.0625 0.375 3.0625 0.375 6 2.125 C9.16391733 7.11056671 7.97258878 11.72524096 7.0625 17.375 C-2.75568182 18.9578877 -2.75568182 18.9578877 -6.9375 16.375 C-9.34514597 14.0503763 -9.88632102 12.77590198 -10.3125 9.4375 C-9.88614606 5.9556095 -9.12418973 4.10836216 -6.9375 1.375 C-4.63516676 0.34291958 -2.51409506 0.32094831 0 0 Z M-6.9375 3.9375 C-8.37202262 7.43414889 -7.85843323 9.75704804 -6.9375 13.375 C-5.97632095 15.50370693 -5.97632095 15.50370693 -3.9375 16.375 C-0.50640417 16.25246086 2.04470554 15.99880951 5 14.1875 C6.62284621 11.41911529 6.51172076 9.51954533 6.0625 6.375 C4.62588689 3.85493156 4.62588689 3.85493156 2.0625 2.375 C-1.70439115 1.84631352 -3.87521432 1.54508931 -6.9375 3.9375 Z " fill="#4085D3" transform="translate(59.9375,48.625)"/>
<path d="M0 0 C3.125 0.25 3.125 0.25 5.0625 1.375 C6.65013015 4.17670027 5.86570176 6.21985644 5.125 9.25 C3.475 9.58 1.825 9.91 0.125 10.25 C0.125 11.57 0.125 12.89 0.125 14.25 C-1.195 13.92 -2.515 13.59 -3.875 13.25 C-3.90186553 11.27090602 -3.92133375 9.29171029 -3.9375 7.3125 C-3.94910156 6.21035156 -3.96070312 5.10820313 -3.97265625 3.97265625 C-3.83805711 0.22003236 -3.75483457 0.32650735 0 0 Z " fill="#05A0FF" transform="translate(21.875,80.75)"/>
<path d="M0 0 C0 1.66666667 0 3.33333333 0 5 C3.465 6.485 3.465 6.485 7 8 C7 8.99 7 9.98 7 11 C6.360625 11.28875 5.72125 11.5775 5.0625 11.875 C2.84793921 12.82823451 2.84793921 12.82823451 2 15 C1.34 15 0.68 15 0 15 C-0.144375 13.88625 -0.28875 12.7725 -0.4375 11.625 C-0.78372035 8.17857953 -0.78372035 8.17857953 -2 6 C-2.99 6.66 -3.98 7.32 -5 8 C-7 6 -7 6 -7.125 2.875 C-7.08375 1.92625 -7.0425 0.9775 -7 0 C-4.3333581 -1.33332095 -2.83319697 -0.67102033 0 0 Z " fill="#93AE37" transform="translate(98,17)"/>
<path d="M0 0 C2.38564077 0.57584432 4.66682784 1.22227595 7 2 C7.45732667 7.71658336 6.52273754 10.48649253 3 15 C0.36610401 12.79092594 -0.88242848 11.39470439 -1.875 8.0625 C-2.00886342 4.7828463 -1.45481436 2.90962871 0 0 Z " fill="#FEA500" transform="translate(29,60)"/>
<path d="M0 0 C0.99 0.33 1.98 0.66 3 1 C3.02686553 2.97909398 3.04633375 4.95828971 3.0625 6.9375 C3.07410156 8.03964844 3.08570312 9.14179687 3.09765625 10.27734375 C3 13 3 13 2 14 C-0.9375 14.1875 -0.9375 14.1875 -4 14 C-4.66 13.34 -5.32 12.68 -6 12 C-5.625 8.375 -5.625 8.375 -5 5 C-3.68 4.67 -2.36 4.34 -1 4 C-0.67 2.68 -0.34 1.36 0 0 Z " fill="#1BA8FF" transform="translate(82,81)"/>
<path d="M0 0 C0.99 0 1.98 0 3 0 C2.95875 0.928125 2.9175 1.85625 2.875 2.8125 C2.72863661 6.15809719 2.72863661 6.15809719 5 9 C1.80097361 9.08886184 -0.92677456 8.91058531 -4 8 C-3.67 8.99 -3.34 9.98 -3 11 C-4 12 -4 12 -6.375 12.1875 C-9 12 -9 12 -12 10 C-11.75 7.625 -11.75 7.625 -11 5 C-8.9375 3.6875 -8.9375 3.6875 -7 3 C-7 4.32 -7 5.64 -7 7 C-5.68 6.67 -4.36 6.34 -3 6 C-2.87625 5.38125 -2.7525 4.7625 -2.625 4.125 C-2 2 -2 2 0 0 Z " fill="#90AC24" transform="translate(47,2)"/>
<path d="M0 0 C4 2 4 2 4.75 4.125 C4.8325 4.74375 4.915 5.3625 5 6 C6.32 6 7.64 6 9 6 C8.67 5.01 8.34 4.02 8 3 C10.86724686 3.57344937 11.8614515 3.8614515 14 6 C13.625 8.625 13.625 8.625 13 11 C11.02 11.33 9.04 11.66 7 12 C7.33 10.68 7.66 9.36 8 8 C4.7 8.33 1.4 8.66 -2 9 C-1.34 6.03 -0.68 3.06 0 0 Z " fill="#97B157" transform="translate(40,101)"/>
<path d="M0 0 C0.763125 0.350625 1.52625 0.70125 2.3125 1.0625 C5.04759379 2.32360884 5.04759379 2.32360884 8 1 C7.75 2.875 7.75 2.875 7 5 C4.9375 6.25 4.9375 6.25 3 7 C3 7.99 3 8.98 3 10 C4.32 9.67 5.64 9.34 7 9 C6.25 13.75 6.25 13.75 4 16 C1.06546739 15.63318342 0.13562754 15.13562754 -2 13 C-2 11.68 -2 10.36 -2 9 C-0.68 9.33 0.64 9.66 2 10 C1.505 8.9171875 1.505 8.9171875 1 7.8125 C-0.00603529 4.98302573 -0.16977402 2.97104534 0 0 Z " fill="#94B039" transform="translate(6,40)"/>
<path d="M0 0 C1.670625 0.061875 1.670625 0.061875 3.375 0.125 C3.375 1.445 3.375 2.765 3.375 4.125 C1.725 4.125 0.075 4.125 -1.625 4.125 C-1.625 4.785 -1.625 5.445 -1.625 6.125 C-0.305 6.125 1.015 6.125 2.375 6.125 C2.375 7.115 2.375 8.105 2.375 9.125 C1.055 9.125 -0.265 9.125 -1.625 9.125 C-1.625 10.775 -1.625 12.425 -1.625 14.125 C-2.945 13.795 -4.265 13.465 -5.625 13.125 C-5.67891993 11.33366022 -5.71775571 9.54186101 -5.75 7.75 C-5.77320313 6.75226563 -5.79640625 5.75453125 -5.8203125 4.7265625 C-5.4959531 0.4060953 -4.19507996 0.14465793 0 0 Z " fill="#07A2FF" transform="translate(56.625,80.875)"/>
<path d="M0 0 C0.66 0 1.32 0 2 0 C2 3.63 2 7.26 2 11 C2.66 11 3.32 11 4 11 C4.33 11.99 4.66 12.98 5 14 C6.32 14 7.64 14 9 14 C9 14.66 9 15.32 9 16 C4.38 16 -0.24 16 -5 16 C-4.34 15.67 -3.68 15.34 -3 15 C-3 14.01 -3 13.02 -3 12 C-2.34 12 -1.68 12 -1 12 C-1.99 10.35 -2.98 8.7 -4 7 C-3.34 6.67 -2.68 6.34 -2 6 C-1.27306096 4.02111039 -0.60183749 2.02045442 0 0 Z " fill="#944D3E" transform="translate(74,60)"/>
<path d="M0 0 C3.0625 0.1875 3.0625 0.1875 5.0625 2.1875 C5.1875 5.8125 5.1875 5.8125 5.0625 9.1875 C3.7425 9.1875 2.4225 9.1875 1.0625 9.1875 C0.340625 9.373125 -0.38125 9.55875 -1.125 9.75 C-1.723125 9.894375 -2.32125 10.03875 -2.9375 10.1875 C-3.9375 9.1875 -3.9375 9.1875 -4.0703125 7.375 C-4.06773438 6.653125 -4.06515625 5.93125 -4.0625 5.1875 C-4.06507812 4.465625 -4.06765625 3.74375 -4.0703125 3 C-3.84370902 -0.09247105 -3.14227848 0.20057097 0 0 Z " fill="#1CACFF" transform="translate(69.9375,84.8125)"/>
<path d="M0 0 C0.33 0.99 0.66 1.98 1 3 C1.66 3 2.32 3 3 3 C3 3.99 3 4.98 3 6 C2.01 6.495 2.01 6.495 1 7 C0.67 7.99 0.34 8.98 0 10 C-1.98 10 -3.96 10 -6 10 C-6.66 8.02 -7.32 6.04 -8 4 C-7.01 4 -6.02 4 -5 4 C-5.33 3.01 -5.66 2.02 -6 1 C-3.92446352 0.4465236 -2.15634036 0 0 0 Z " fill="#2BAEFF" transform="translate(62,53)"/>
<path d="M0 0 C2.5 2.3125 2.5 2.3125 4 5 C3.67 5.99 3.34 6.98 3 8 C2.0925 7.154375 1.185 6.30875 0.25 5.4375 C-2.18952952 3.26738125 -2.18952952 3.26738125 -5.375 3.1875 C-5.91125 3.455625 -6.4475 3.72375 -7 4 C-7 4.99 -7 5.98 -7 7 C-7.66 7 -8.32 7 -9 7 C-8.67 7.99 -8.34 8.98 -8 10 C-10.475 9.01 -10.475 9.01 -13 8 C-12.68151851 5.02750614 -11.96374181 3.96160897 -9.875 1.75 C-6.22275084 -0.47310819 -4.20635211 -0.68831216 0 0 Z " fill="#E0ACD8" transform="translate(81,27)"/>
<path d="M0 0 C2.625 0.375 2.625 0.375 5 1 C5.33 2.32 5.66 3.64 6 5 C4.35 5.33 2.7 5.66 1 6 C1 6.66 1 7.32 1 8 C2.65 7.67 4.3 7.34 6 7 C5.67 7.99 5.34 8.98 5 10 C3.00045254 10.04254356 0.99958364 10.04080783 -1 10 C-2 9 -2 9 -2.1875 5.5625 C-2 2 -2 2 0 0 Z " fill="#1AAAFF" transform="translate(31,85)"/>
<path d="M0 0 C-0.66 1.65 -1.32 3.3 -2 5 C1.3 5 4.6 5 8 5 C7.67 6.32 7.34 7.64 7 9 C7.33 9.66 7.66 10.32 8 11 C7.34 11 6.68 11 6 11 C5.67 11.66 5.34 12.32 5 13 C3.0625 12.25 3.0625 12.25 1 11 C0.25 8.875 0.25 8.875 0 7 C-0.99 7 -1.98 7 -3 7 C-3.103125 6.38125 -3.20625 5.7625 -3.3125 5.125 C-3.87525373 2.63473516 -3.87525373 2.63473516 -7 1 C-4.53721199 -0.231394 -2.7204945 -0.07159196 0 0 Z " fill="#8CA915" transform="translate(83,6)"/>
<path d="M0 0 C1.1446875 0.3403125 1.1446875 0.3403125 2.3125 0.6875 C1.9375 3.125 1.9375 3.125 1.3125 5.6875 C0.3225 6.1825 0.3225 6.1825 -0.6875 6.6875 C0.3025 6.6875 1.2925 6.6875 2.3125 6.6875 C1.9825 7.6775 1.6525 8.6675 1.3125 9.6875 C-1.0625 9.8125 -1.0625 9.8125 -3.6875 9.6875 C-5.6875 7.6875 -5.6875 7.6875 -6 5.25 C-5.6875 2.6875 -5.6875 2.6875 -4.5 0.8125 C-2.6875 -0.3125 -2.6875 -0.3125 0 0 Z " fill="#16A8FF" transform="translate(91.6875,85.3125)"/>
<path d="M0 0 C3.3 0.33 6.6 0.66 10 1 C9.67 1.66 9.34 2.32 9 3 C8.34 3 7.68 3 7 3 C6.9175 3.78375 6.835 4.5675 6.75 5.375 C6 8 6 8 3.9375 9.3125 C2.9784375 9.6528125 2.9784375 9.6528125 2 10 C2 8.68 2 7.36 2 6 C0.68 6.33 -0.64 6.66 -2 7 C-2.33 6.34 -2.66 5.68 -3 5 C-2.01 4.67 -1.02 4.34 0 4 C0 2.68 0 1.36 0 0 Z " fill="#8DAC2E" transform="translate(75,101)"/>
<path d="M0 0 C0.99 0.33 1.98 0.66 3 1 C3 1.99 3 2.98 3 4 C3.66 4 4.32 4 5 4 C5 4.66 5 5.32 5 6 C4.34 6 3.68 6 3 6 C3 7.32 3 8.64 3 10 C3.66 10 4.32 10 5 10 C5 10.99 5 11.98 5 13 C3.35 13 1.7 13 0 13 C-2 6.25 -2 6.25 -2 4 C-1.34 4 -0.68 4 0 4 C0 2.68 0 1.36 0 0 Z " fill="#0FA4FF" transform="translate(40,82)"/>
<path d="M0 0 C1.87560856 2.81341284 3.03975986 5.2968416 4.25 8.4375 C4.62640625 9.38496094 5.0028125 10.33242187 5.390625 11.30859375 C6 14 6 14 5.109375 16.34765625 C4.74328125 16.89292969 4.3771875 17.43820313 4 18 C2.35 17.67 0.7 17.34 -1 17 C-1.33 16.01 -1.66 15.02 -2 14 C-1.34 13.01 -0.68 12.02 0 11 C0.24187651 8.25481679 0.24187651 8.25481679 0.125 5.3125 C0.10695312 4.31863281 0.08890625 3.32476562 0.0703125 2.30078125 C0.04710937 1.54152344 0.02390625 0.78226563 0 0 Z " fill="#D66900" transform="translate(35,58)"/>
<path d="M0 0 C3.13384992 1.25353997 6.03145514 2.46075452 9 4 C8.67 4.99 8.34 5.98 8 7 C6.35448038 7.71727778 4.68577711 8.38325228 3 9 C2.34 9.66 1.68 10.32 1 11 C0.67 7.37 0.34 3.74 0 0 Z " fill="#8CAB22" transform="translate(9,30)"/>
<path d="M0 0 C4 1 4 1 6 3 C10.92494167 3.46447597 10.92494167 3.46447597 15.3125 1.5 C15.869375 1.005 16.42625 0.51 17 0 C17.66 0 18.32 0 19 0 C19 0.66 19 1.32 19 2 C18.01 2.495 18.01 2.495 17 3 C15.86649466 5.01669827 15.86649466 5.01669827 15 7 C14.67 6.67 14.34 6.34 14 6 C11.44340497 6.00901797 8.90106555 6.13289751 6.34765625 6.2578125 C5.57292969 6.17273438 4.79820313 6.08765625 4 6 C3.34 5.01 2.68 4.02 2 3 C1.67 4.98 1.34 6.96 1 9 C0.67 9 0.34 9 0 9 C0 6.03 0 3.06 0 0 Z " fill="#925460" transform="translate(67,22)"/>
<path d="M0 0 C1.32 0.66 2.64 1.32 4 2 C4.625 4.5625 4.625 4.5625 5 7 C5.66 7.33 6.32 7.66 7 8 C3.7 8.33 0.4 8.66 -3 9 C-2.01 6.03 -1.02 3.06 0 0 Z " fill="#8CAB29" transform="translate(32,97)"/>
<path d="M0 0 C3.125 0.25 3.125 0.25 5 1.75 C5.37125 2.245 5.7425 2.74 6.125 3.25 C4.145 4.24 4.145 4.24 2.125 5.25 C2.125 5.91 2.125 6.57 2.125 7.25 C0.25 7.0625 0.25 7.0625 -1.875 6.25 C-3.125 3.6875 -3.125 3.6875 -3.875 1.25 C-2.875 0.25 -2.875 0.25 0 0 Z " fill="#229FFA" transform="translate(21.875,80.75)"/>
<path d="M0 0 C3.3 0 6.6 0 10 0 C9.01 0.495 9.01 0.495 8 1 C7.59270772 3.32156597 7.25561323 5.6568787 7 8 C6.01 8.33 5.02 8.66 4 9 C3.896875 8.21625 3.79375 7.4325 3.6875 6.625 C3.22404978 3.66954819 3.22404978 3.66954819 0 2 C0 1.34 0 0.68 0 0 Z " fill="#8CAF20" transform="translate(82,98)"/>
<path d="M0 0 C0.66 0.33 1.32 0.66 2 1 C2 1.66 2 2.32 2 3 C3.98 3.66 5.96 4.32 8 5 C5.42595029 8.86107457 3.38979741 8.94319692 -1 10 C-1.02689216 8.52093108 -1.04634621 7.04172517 -1.0625 5.5625 C-1.07410156 4.73878906 -1.08570313 3.91507813 -1.09765625 3.06640625 C-1 1 -1 1 0 0 Z " fill="#8CAA24" transform="translate(15,22)"/>
<path d="M0 0 C1.32 1.32 2.64 2.64 4 4 C3.505 4.53625 3.01 5.0725 2.5 5.625 C0.59754922 8.63721374 0.61919785 10.49662019 1 14 C1.66 14.66 2.32 15.32 3 16 C1.02 16.66 -0.96 17.32 -3 18 C-4.24593719 14.26218844 -3.20084054 12.66988079 -1.76953125 9.140625 C-0.67723765 6.10216362 -0.33377666 3.20425598 0 0 Z " fill="#C56580" transform="translate(68,24)"/>
<path d="M0 0 C0.66 0 1.32 0 2 0 C2.99 2.97 3.98 5.94 5 9 C6.95216435 7.04783565 7.84826645 5.46800047 9 3 C8.54177532 6.46941546 8.10868317 9.67395049 7 13 C6.34 13 5.68 13 5 13 C4.67 13.99 4.34 14.98 4 16 C2.68 10.72 1.36 5.44 0 0 Z " fill="#BF5C15" transform="translate(49,21)"/>
<path d="M0 0 C3.32759923 1.55194754 5.48580485 3.30621949 8 6 C7.01 8.31 6.02 10.62 5 13 C4.34 12.67 3.68 12.34 3 12 C2.1484375 9.27734375 2.1484375 9.27734375 1.375 5.9375 C0.98441406 4.28041016 0.98441406 4.28041016 0.5859375 2.58984375 C0.39257812 1.73519531 0.19921875 0.88054688 0 0 Z " fill="#EA9D34" transform="translate(50,18)"/>
<path d="M0 0 C0 0.33 0 0.66 0 1 C-0.556875 0.99097656 -1.11375 0.98195313 -1.6875 0.97265625 C-7.78243013 1.20945252 -10.96674608 2.97811355 -15.46875 7.015625 C-17.26078072 9.33795052 -17.64219794 11.11770565 -18 14 C-18.66 14 -19.32 14 -20 14 C-19.2620411 8.64979797 -18.49375766 5.899971 -14.125 2.5625 C-9.1551861 -0.90503175 -5.92207757 -1.21133405 0 0 Z " fill="#B98587" transform="translate(48,18)"/>
<path d="M0 0 C0.66 1.32 1.32 2.64 2 4 C2.66 3.67 3.32 3.34 4 3 C4 3.66 4 4.32 4 5 C4.99 5.33 5.98 5.66 7 6 C5.875 7.5 5.875 7.5 4 9 C0.8125 9.1875 0.8125 9.1875 -2 9 C-2.125 5.625 -2.125 5.625 -2 2 C-1.34 1.34 -0.68 0.68 0 0 Z " fill="#91AB2B" transform="translate(22,15)"/>
<path d="M0 0 C0.66 0.66 1.32 1.32 2 2 C2.99 1.67 3.98 1.34 5 1 C4.67 2.98 4.34 4.96 4 7 C2.25 7.75 2.25 7.75 0 8 C-2.25 6.1875 -2.25 6.1875 -4 4 C-4 3.34 -4 2.68 -4 2 C-2.68 2.33 -1.36 2.66 0 3 C0 2.01 0 1.02 0 0 Z " fill="#8DAF1E" transform="translate(9,66)"/>
<path d="M0 0 C4.875 4.625 4.875 4.625 6 8 C5.34 8 4.68 8 4 8 C4 8.99 4 9.98 4 11 C3.01 11.33 2.02 11.66 1 12 C0.63762737 10.37681021 0.28534843 8.7513642 -0.0625 7.125 C-0.25972656 6.22007813 -0.45695312 5.31515625 -0.66015625 4.3828125 C-1 2 -1 2 0 0 Z " fill="#C66F3B" transform="translate(67,64)"/>
<path d="M0 0 C0.66 0 1.32 0 2 0 C1.67 1.65 1.34 3.3 1 5 C3.475 5.99 3.475 5.99 6 7 C5.67 7.66 5.34 8.32 5 9 C1.28400809 9.20086443 0.22791555 9.1519437 -3 7 C-2.25 2.25 -2.25 2.25 0 0 Z " fill="#8AA914" transform="translate(38,5)"/>
<path d="M0 0 C4 2 4 2 5 3 C5.04063832 4.66617115 5.042721 6.33388095 5 8 C2.69 8.33 0.38 8.66 -2 9 C-1.34 6.03 -0.68 3.06 0 0 Z " fill="#89A913" transform="translate(40,101)"/>
<path d="M0 0 C2.31 0.33 4.62 0.66 7 1 C7 1.99 7 2.98 7 4 C5.68 4 4.36 4 3 4 C3 5.98 3 7.96 3 10 C2.01 10 1.02 10 0 10 C0 6.7 0 3.4 0 0 Z " fill="#08A4FF" transform="translate(96,85)"/>
<path d="M0 0 C0.763125 0.350625 1.52625 0.70125 2.3125 1.0625 C5.04759379 2.32360884 5.04759379 2.32360884 8 1 C7.75 2.875 7.75 2.875 7 5 C5.68352881 5.69937532 4.34977849 6.36729133 3 7 C2.67 7.99 2.34 8.98 2 10 C0.39644899 6.49223216 -0.22036864 3.85645121 0 0 Z " fill="#90B013" transform="translate(6,40)"/>
<path d="M0 0 C0.66 0 1.32 0 2 0 C2.33 0.99 2.66 1.98 3 3 C3.99 3 4.98 3 6 3 C6 3.66 6 4.32 6 5 C6.33 5.66 6.66 6.32 7 7 C4.6739143 7.38063221 2.33944736 7.71269945 0 8 C-1 7 -1 7 -1.125 4 C-1 1 -1 1 0 0 Z " fill="#95B12C" transform="translate(29,10)"/>
<path d="M0 0 C0.99 0 1.98 0 3 0 C2.8125 2.375 2.8125 2.375 2 5 C-0.5625 6.3125 -0.5625 6.3125 -3 7 C-4.5 5.6875 -4.5 5.6875 -6 4 C-6 3.01 -6 2.02 -6 1 C-5.38125 1.20625 -4.7625 1.4125 -4.125 1.625 C-3.073125 1.810625 -3.073125 1.810625 -2 2 C-1.34 1.34 -0.68 0.68 0 0 Z " fill="#8EAC1D" transform="translate(10,58)"/>
<path d="M0 0 C2.375 -0.125 2.375 -0.125 5 0 C5.66 0.66 6.32 1.32 7 2 C8.4540625 1.7525 8.4540625 1.7525 9.9375 1.5 C13 1 13 1 16 3 C10.8136299 5.20420729 7.39184057 5.25809613 2 4 C0.5 1.9375 0.5 1.9375 0 0 Z " fill="#FED0FC" transform="translate(68,38)"/>
<path d="M0 0 C0.99 0.33 1.98 0.66 3 1 C3 3.64 3 6.28 3 9 C1.68 9.33 0.36 9.66 -1 10 C-1.02689216 8.52093108 -1.04634621 7.04172517 -1.0625 5.5625 C-1.07410156 4.73878906 -1.08570313 3.91507812 -1.09765625 3.06640625 C-1 1 -1 1 0 0 Z " fill="#20ACFF" transform="translate(62,85)"/>
<path d="M0 0 C0.33 0 0.66 0 1 0 C1.33 3.63 1.66 7.26 2 11 C0.68 10.67 -0.64 10.34 -2 10 C-3.26066301 6.21801096 -2.42292658 4.63636792 -1 1 C-0.67 0.67 -0.34 0.34 0 0 Z " fill="#FFA60B" transform="translate(32,25)"/>
<path d="M0 0 C0.66 1.32 1.32 2.64 2 4 C2.33 3.34 2.66 2.68 3 2 C3.66 2 4.32 2 5 2 C5.33 2.66 5.66 3.32 6 4 C7.32 4 8.64 4 10 4 C10 4.66 10 5.32 10 6 C5.38 6 0.76 6 -4 6 C-3.34 5.67 -2.68 5.34 -2 5 C-2 4.01 -2 3.02 -2 2 C-1.34 2 -0.68 2 0 2 C0 1.34 0 0.68 0 0 Z " fill="#7E3A18" transform="translate(73,70)"/>
<path d="M0 0 C0.08159574 4.16138263 -0.01751476 7.9472484 -1 12 C-3.25740223 9.55448092 -3.97222725 8.23143959 -4.375 4.875 C-4.189375 3.451875 -4.189375 3.451875 -4 2 C-1 0 -1 0 0 0 Z " fill="#B7647C" transform="translate(87,23)"/>
<path d="M0 0 C1.65 0 3.3 0 5 0 C4.67 0.66 4.34 1.32 4 2 C3.77532169 3.53668865 3.59203195 5.07968054 3.4375 6.625 C3.35371094 7.44226563 3.26992188 8.25953125 3.18359375 9.1015625 C3.12300781 9.72804688 3.06242187 10.35453125 3 11 C2.34 11 1.68 11 1 11 C0.67 7.37 0.34 3.74 0 0 Z " fill="#FD7700" transform="translate(44,64)"/>
<path d="M0 0 C-0.33 1.65 -0.66 3.3 -1 5 C0.32 4.67 1.64 4.34 3 4 C2.67 4.99 2.34 5.98 2 7 C-0.31 7.33 -2.62 7.66 -5 8 C-4.01 6.68 -3.02 5.36 -2 4 C-2.99 3.67 -3.98 3.34 -5 3 C-5 2.34 -5 1.68 -5 1 C-3 0 -3 0 0 0 Z " fill="#8B3E00" transform="translate(46,28)"/>
<path d="M0 0 C1.65 0 3.3 0 5 0 C5 3 5 3 3 6 C1.68 6 0.36 6 -1 6 C-0.67 4.02 -0.34 2.04 0 0 Z " fill="#CBC7DB" transform="translate(54,108)"/>
<path d="M0 0 C0.99 0.33 1.98 0.66 3 1 C3 1.99 3 2.98 3 4 C5.97065509 3.65772428 5.97065509 3.65772428 9 3 C9.33 2.34 9.66 1.68 10 1 C10.66 1 11.32 1 12 1 C11.4375 2.9375 11.4375 2.9375 10 5 C6.5625 5.9375 6.5625 5.9375 3 6 C1.0625 4.75 1.0625 4.75 0 3 C0 2.01 0 1.02 0 0 Z " fill="#F9E4FE" transform="translate(53,59)"/>
<path d="M0 0 C0.33 0.99 0.66 1.98 1 3 C1.66 3 2.32 3 3 3 C3 3.99 3 4.98 3 6 C-0.375 5.75 -0.375 5.75 -4 5 C-5.4375 2.9375 -5.4375 2.9375 -6 1 C-3.92446352 0.4465236 -2.15634036 0 0 0 Z " fill="#54B7FF" transform="translate(62,53)"/>
<path d="M0 0 C2.0625 0.4375 2.0625 0.4375 4 1 C4 3.31 4 5.62 4 8 C3.01 8.33 2.02 8.66 1 9 C1 6.69 1 4.38 1 2 C0.34 1.67 -0.32 1.34 -1 1 C-0.67 0.67 -0.34 0.34 0 0 Z " fill="#02A2FF" transform="translate(71,86)"/>
<path d="M0 0 C0.33 2.31 0.66 4.62 1 7 C-0.65 6.67 -2.3 6.34 -4 6 C-4.33 4.35 -4.66 2.7 -5 1 C-3 0 -3 0 0 0 Z " fill="#DD830B" transform="translate(38,23)"/>
<path d="M0 0 C0.99 0.33 1.98 0.66 3 1 C3 2.32 3 3.64 3 5 C3.30404678 6.67225729 3.63128912 8.34080104 4 10 C3.34 10 2.68 10 2 10 C2 8.68 2 7.36 2 6 C0.68 6.33 -0.64 6.66 -2 7 C-2.33 6.34 -2.66 5.68 -3 5 C-2.01 4.67 -1.02 4.34 0 4 C0 2.68 0 1.36 0 0 Z " fill="#A0B76F" transform="translate(75,101)"/>
<path d="M0 0 C0.99 0.33 1.98 0.66 3 1 C3 1.99 3 2.98 3 4 C-1.455 4.495 -1.455 4.495 -6 5 C-6.33 3.68 -6.66 2.36 -7 1 C-6.01 1.33 -5.02 1.66 -4 2 C-3.34 1.67 -2.68 1.34 -2 1 C-1.34 0.67 -0.68 0.34 0 0 Z " fill="#C398C7" transform="translate(35,79)"/>
<path d="M0 0 C4.875 2.625 4.875 2.625 6 6 C4.35 5.67 2.7 5.34 1 5 C0.67 6.32 0.34 7.64 0 9 C-0.84454356 5.62182575 -1.10844919 3.32534757 0 0 Z " fill="#86A30D" transform="translate(109,49)"/>
<path d="M0 0 C0.763125 0.20625 1.52625 0.4125 2.3125 0.625 C2.3125 1.285 2.3125 1.945 2.3125 2.625 C3.3025 2.955 4.2925 3.285 5.3125 3.625 C4.054375 3.66625 2.79625 3.7075 1.5 3.75 C0.79230469 3.77320312 0.08460937 3.79640625 -0.64453125 3.8203125 C-2.6875 3.625 -2.6875 3.625 -5.6875 1.625 C-2.6875 -0.375 -2.6875 -0.375 0 0 Z " fill="#88463B" transform="translate(85.6875,72.375)"/>
<path d="M0 0 C2 1 2 1 3 3 C2.34 3 1.68 3 1 3 C1.66 4.32 2.32 5.64 3 7 C1.68 6.67 0.36 6.34 -1 6 C-1.33 6.99 -1.66 7.98 -2 9 C-2.33 9 -2.66 9 -3 9 C-3.26218749 5.85375007 -3.24754367 4.38162983 -1.5 1.6875 C-1.005 1.130625 -0.51 0.57375 0 0 Z " fill="#E3D4FD" transform="translate(55,51)"/>
<path d="M0 0 C0.99 0 1.98 0 3 0 C3.33 1.32 3.66 2.64 4 4 C3.34 4 2.68 4 2 4 C1.34 5.98 0.68 7.96 0 10 C-0.185625 9.071875 -0.185625 9.071875 -0.375 8.125 C-0.87197356 5.80879168 -0.87197356 5.80879168 -3 4 C-2.34 3.67 -1.68 3.34 -1 3 C-0.67 2.01 -0.34 1.02 0 0 Z " fill="#C38FB9" transform="translate(84,35)"/>
<path d="M0 0 C1.32 0.33 2.64 0.66 4 1 C4.33 2.98 4.66 4.96 5 7 C1.125 6.125 1.125 6.125 0 5 C-0.04063832 3.33382885 -0.042721 1.66611905 0 0 Z " fill="#83A206" transform="translate(76,8)"/>
<path d="M0 0 C0.33 1.32 0.66 2.64 1 4 C2.32 4.33 3.64 4.66 5 5 C5 6.32 5 7.64 5 9 C3.68 9 2.36 9 1 9 C-1 6 -1 6 -0.625 2.8125 C-0.41875 1.884375 -0.2125 0.95625 0 0 Z " fill="#C55E02" transform="translate(52,67)"/>
<path d="M0 0 C0.33 0 0.66 0 1 0 C1.33 2.97 1.66 5.94 2 9 C0.35 9 -1.3 9 -3 9 C-1.125 2.25 -1.125 2.25 0 0 Z " fill="#D88724" transform="translate(55,41)"/>
<path d="M0 0 C2.475 0.99 2.475 0.99 5 2 C4.67 2.66 4.34 3.32 4 4 C3.34 4 2.68 4 2 4 C2 4.66 2 5.32 2 6 C0.35 5.67 -1.3 5.34 -3 5 C-3 4.01 -3 3.02 -3 2 C-2.01 2 -1.02 2 0 2 C0 1.34 0 0.68 0 0 Z " fill="#90AA32" transform="translate(71,6)"/>
<path d="M0 0 C0.33 0 0.66 0 1 0 C0.25 6.75 0.25 6.75 -2 9 C-2 8.01 -2 7.02 -2 6 C-3.32 6 -4.64 6 -6 6 C-6 5.34 -6 4.68 -6 4 C-4.35 4 -2.7 4 -1 4 C-0.67 2.68 -0.34 1.36 0 0 Z " fill="#DBDFFE" transform="translate(61,81)"/>
<path d="M0 0 C1.65 0 3.3 0 5 0 C5.33 1.32 5.66 2.64 6 4 C5.01 4.495 5.01 4.495 4 5 C1.875 4.0625 1.875 4.0625 0 3 C0 2.01 0 1.02 0 0 Z " fill="#3AA6FF" transform="translate(97,79)"/>
<path d="M0 0 C0.33 0.66 0.66 1.32 1 2 C1.66 2 2.32 2 3 2 C7.76744186 6.30232558 7.76744186 6.30232558 9 10 C5.17647894 8.4422692 2.70794407 6.08404742 0 3 C0 2.01 0 1.02 0 0 Z " fill="#E46F00" transform="translate(35,44)"/>
<path d="M0 0 C0.66 0 1.32 0 2 0 C2.33 0.66 2.66 1.32 3 2 C4.65 2 6.3 2 8 2 C6.37660195 3.70884005 4.70680947 5.37446717 3 7 C2.34 7 1.68 7 1 7 C0.67 4.69 0.34 2.38 0 0 Z " fill="#94AB51" transform="translate(97,25)"/>
<path d="M0 0 C-0.66 1.65 -1.32 3.3 -2 5 C-0.68 5.33 0.64 5.66 2 6 C0.35 6.33 -1.3 6.66 -3 7 C-3.103125 6.38125 -3.20625 5.7625 -3.3125 5.125 C-3.87525373 2.63473516 -3.87525373 2.63473516 -7 1 C-4.53721199 -0.231394 -2.7204945 -0.07159196 0 0 Z " fill="#8FAB35" transform="translate(83,6)"/>
<path d="M0 0 C2.375 -0.1875 2.375 -0.1875 5 0 C5.66 0.99 6.32 1.98 7 3 C2.25 4.125 2.25 4.125 0 3 C0 2.01 0 1.02 0 0 Z " fill="#92B129" transform="translate(22,97)"/>
<path d="M0 0 C0.33 0 0.66 0 1 0 C1 2.64 1 5.28 1 8 C0.34 8 -0.32 8 -1 8 C-1 7.34 -1 6.68 -1 6 C-2.32 6.33 -3.64 6.66 -5 7 C-5.33 6.34 -5.66 5.68 -6 5 C-5.38125 4.9175 -4.7625 4.835 -4.125 4.75 C-1.81562433 4.18741541 -1.81562433 4.18741541 -0.75 1.9375 C-0.5025 1.298125 -0.255 0.65875 0 0 Z " fill="#9FD0FF" transform="translate(95,86)"/>
<path d="M0 0 C-1.65 0.33 -3.3 0.66 -5 1 C-5.99 3.97 -6.98 6.94 -8 10 C-8.33 10 -8.66 10 -9 10 C-9.31263383 3.12205567 -9.31263383 3.12205567 -7 0 C-4.04680182 -1.23843794 -3.12561472 -1.04187157 0 0 Z " fill="#368CDA" transform="translate(60,50)"/>
<path d="M0 0 C1.1875 1.5625 1.1875 1.5625 2 4 C0.625 7.75 0.625 7.75 -1 11 C-1.66 11 -2.32 11 -3 11 C-2.32829194 7.1936543 -1.27253436 3.64793184 0 0 Z " fill="#91AC33" transform="translate(108,45)"/>
<path d="M0 0 C0.66 0 1.32 0 2 0 C2.33 0.99 2.66 1.98 3 3 C3.66 3.66 4.32 4.32 5 5 C3.02 5.66 1.04 6.32 -1 7 C-2 4 -2 4 -1.0625 1.8125 C-0.5365625 0.9153125 -0.5365625 0.9153125 0 0 Z " fill="#B98CB8" transform="translate(66,35)"/>
<path d="M0 0 C2.375 0.3125 2.375 0.3125 5 1 C5.66 1.99 6.32 2.98 7 4 C6.67 4.99 6.34 5.98 6 7 C3.95880212 5.38405168 1.95927063 3.7143618 0 2 C0 1.34 0 0.68 0 0 Z " fill="#FACCF8" transform="translate(78,28)"/>
<path d="M0 0 C4 1 4 1 6 4 C5.34 4.66 4.68 5.32 4 6 C3.34 5.01 2.68 4.02 2 3 C1.67 4.98 1.34 6.96 1 9 C0.67 9 0.34 9 0 9 C0 6.03 0 3.06 0 0 Z " fill="#844340" transform="translate(67,22)"/>
<path d="M0 0 C0.33 0 0.66 0 1 0 C1 2.64 1 5.28 1 8 C0.01 8.33 -0.98 8.66 -2 9 C-2.125 5.625 -2.125 5.625 -2 2 C-1.34 1.34 -0.68 0.68 0 0 Z " fill="#90B11A" transform="translate(22,15)"/>
<path d="M0 0 C2.475 0.495 2.475 0.495 5 1 C4.67 2.32 4.34 3.64 4 5 C2.68 4.67 1.36 4.34 0 4 C0 2.68 0 1.36 0 0 Z " fill="#E49E32" transform="translate(54,66)"/>
<path d="M0 0 C2.875 -0.1875 2.875 -0.1875 6 0 C6.66 0.99 7.32 1.98 8 3 C6.02 3 4.04 3 2 3 C1.67 3.66 1.34 4.32 1 5 C0.67 3.35 0.34 1.7 0 0 Z " fill="#8AA903" transform="translate(98,24)"/>
<path d="M0 0 C2.86724686 0.57344937 3.8614515 0.8614515 6 3 C6 3.99 6 4.98 6 6 C4.125 5.8125 4.125 5.8125 2 5 C0.75 2.4375 0.75 2.4375 0 0 Z " fill="#8DAC0D" transform="translate(48,104)"/>
<path d="M0 0 C1.98 0.66 3.96 1.32 6 2 C5.67 2.66 5.34 3.32 5 4 C4.34 4 3.68 4 3 4 C2.67 4.66 2.34 5.32 2 6 C1.34 5.34 0.68 4.68 0 4 C0 2.68 0 1.36 0 0 Z " fill="#8AAB0A" transform="translate(4,49)"/>
<path d="M0 0 C0.66 0 1.32 0 2 0 C2.33 1.65 2.66 3.3 3 5 C1.02 5.99 1.02 5.99 -1 7 C-1.04254356 5.00045254 -1.04080783 2.99958364 -1 1 C-0.67 0.67 -0.34 0.34 0 0 Z " fill="#8AAD05" transform="translate(29,10)"/>
<path d="M0 0 C2.475 0.99 2.475 0.99 5 2 C4.67 2.99 4.34 3.98 4 5 C2.68 5 1.36 5 0 5 C-0.5625 3.0625 -0.5625 3.0625 -1 1 C-0.67 0.67 -0.34 0.34 0 0 Z " fill="#97B340" transform="translate(13,32)"/>
<path d="M0 0 C0.66 0.33 1.32 0.66 2 1 C2 2.65 2 4.3 2 6 C1.01 6.33 0.02 6.66 -1 7 C-1.04254356 5.00045254 -1.04080783 2.99958364 -1 1 C-0.67 0.67 -0.34 0.34 0 0 Z " fill="#8FB005" transform="translate(15,22)"/>
<path d="M0 0 C1.32 0 2.64 0 4 0 C4 0.99 4 1.98 4 3 C2.35 3.33 0.7 3.66 -1 4 C-1 1 -1 1 0 0 Z " fill="#E1D3F0" transform="translate(74,4)"/>
<path d="M0 0 C0 1.66666667 0 3.33333333 0 5 C-1.9375 4.6875 -1.9375 4.6875 -4 4 C-4.33 3.01 -4.66 2.02 -5 1 C-3.35 0.67 -1.7 0.34 0 0 Z " fill="#C5C7FD" transform="translate(24,83)"/>
<path d="M0 0 C0.33 0 0.66 0 1 0 C1.33 2.31 1.66 4.62 2 7 C0.68 7.33 -0.64 7.66 -2 8 C-1.125 2.25 -1.125 2.25 0 0 Z " fill="#FCB8D4" transform="translate(84,65)"/>
<path d="M0 0 C0.99 0.33 1.98 0.66 3 1 C3 2.65 3 4.3 3 6 C2.01 6 1.02 6 0 6 C0 4.02 0 2.04 0 0 Z " fill="#D5C8D2" transform="translate(17,19)"/>
</svg>
